<svg width="63" height="59" viewBox="0 0 63 59" fill="none" xmlns="http://www.w3.org/2000/svg">
<path d="M28.875 9.83332H10.5C9.10761 9.83332 7.77226 10.3513 6.78769 11.2734C5.80312 12.1954 5.25 13.446 5.25 14.75V49.1667C5.25 50.4706 5.80312 51.7212 6.78769 52.6433C7.77226 53.5653 9.10761 54.0833 10.5 54.0833H47.25C48.6424 54.0833 49.9777 53.5653 50.9623 52.6433C51.9469 51.7212 52.5 50.4706 52.5 49.1667V31.9583M48.5625 6.14582C49.6068 5.16783 51.0232 4.61841 52.5 4.61841C53.9768 4.61841 55.3932 5.16783 56.4375 6.14582C57.4818 7.12381 58.0685 8.45024 58.0685 9.83332C58.0685 11.2164 57.4818 12.5428 56.4375 13.5208L31.5 36.875L21 39.3333L23.625 29.5L48.5625 6.14582Z" stroke="#4E36FF" stroke-width="4" stroke-linecap="round" stroke-linejoin="round"/>
</svg>
